<svg width="36" height="27" viewBox="0 0 36 27" fill="none" xmlns="http://www.w3.org/2000/svg">
<path d="M34.8477 19.0651C34.8477 20.1789 33.5109 21.5481 32.4236 21.5481H31.4337C31.4348 14.7315 31.4348 7.08956 31.4337 5.73312C31.4333 5.69295 31.4408 5.6531 31.4559 5.61584C31.471 5.57858 31.4934 5.54465 31.5217 5.51599C31.55 5.48733 31.5837 5.46451 31.6209 5.44882C31.6581 5.43313 31.698 5.4249 31.7384 5.42458H34.5416C34.7099 5.42458 34.8478 5.56502 34.8478 5.73554V19.0651H34.8477ZM30.2798 23.94C30.2798 24.6451 29.9328 25.8262 27.6082 25.8262C23.1034 25.8262 20.338 22.3175 20.338 19.8011C20.338 19.8011 20.3329 11.6646 20.3329 5.73569C20.3325 5.69546 20.34 5.65554 20.3551 5.61823C20.3703 5.58091 20.3927 5.54694 20.421 5.51826C20.4494 5.48958 20.4832 5.46677 20.5205 5.45113C20.5578 5.4355 20.5978 5.42735 20.6383 5.42715H23.4448C23.6132 5.42715 23.7516 5.56668 23.7516 5.73826V18.8117C23.7516 20.9718 25.4713 22.7239 27.5912 22.7239H30.2814L30.2798 23.94ZM34.7543 4.25211H31.5252C30.8387 4.25211 30.2795 4.82217 30.2795 5.52148V21.5494H27.5892C26.105 21.5494 24.902 20.3234 24.902 18.8114V5.52148C24.902 4.8205 24.3436 4.2515 23.6557 4.2515H20.4252C19.7373 4.2515 19.1791 4.8205 19.178 5.52148C19.1764 11.3164 19.183 19.8014 19.183 19.8014C19.1835 24.2614 24.0898 27 27.6073 27C29.9667 27 31.4322 25.825 31.4322 23.932V22.7236H32.4232C34.1614 22.7236 36 20.8435 36 19.0651V5.52148C36.0017 4.8205 35.4434 4.2515 34.7544 4.2515V4.25211H34.7543ZM15.6701 21.2645C15.6705 21.3046 15.6629 21.3445 15.6478 21.3817C15.6326 21.419 15.6102 21.4529 15.5819 21.4815C15.5535 21.5101 15.5197 21.5329 15.4825 21.5485C15.4453 21.5641 15.4053 21.5722 15.3649 21.5724H12.5584C12.3877 21.5724 12.2508 21.4317 12.2516 21.262V8.18842C12.2516 6.0285 10.5314 4.27644 8.41197 4.27644H5.72167V3.05998C5.72167 2.35643 6.06868 1.17383 8.39327 1.17383C12.8983 1.17383 15.6645 4.68234 15.6645 7.19886C15.6645 7.19886 15.6695 15.3749 15.6695 21.2643H15.6701V21.2645ZM1.45859 21.5751C1.28782 21.5701 1.15127 21.4333 1.15325 21.2636V7.93642C1.15325 6.82245 2.49018 5.45149 3.57698 5.45149H4.56782C4.5663 15.213 4.5663 20.2079 4.56782 21.2629C4.56859 21.3445 4.53685 21.423 4.47954 21.4813C4.42223 21.5396 4.34402 21.5729 4.26202 21.5741H1.45904L1.45859 21.5751ZM16.8163 7.19901C16.8169 2.73859 11.9105 0 8.39342 0C6.0334 0 4.56782 1.17489 4.56782 3.06799V4.27644H3.57743C1.83859 4.27644 0 6.15654 0 7.93506V21.4785C0 22.1795 0.558223 22.7485 1.24585 22.7485H4.4743C4.49437 22.7485 4.51156 22.7431 4.53163 22.7431C5.19143 22.7115 5.72 22.1591 5.72 21.4785V5.45058H8.41075C9.89443 5.45058 11.098 6.67657 11.098 8.18857V21.4787C11.098 22.1796 11.6564 22.7486 12.3439 22.7486H15.5749C16.2628 22.7486 16.8207 22.1812 16.8207 21.4787C16.8232 15.5756 16.8168 7.19871 16.8168 7.19871L16.8163 7.19901Z" fill="white"/>
</svg>
